<svg width="440" height="150" viewBox="0 0 440 150" xmlns="http://www.w3.org/2000/svg">
  <defs>
    <linearGradient id="apkGradient" x1="0%" y1="0%" x2="0%" y2="100%">
      <stop offset="0%" style="stop-color:#3DDC84;stop-opacity:1" />
      <stop offset="100%" style="stop-color:#1B5E20;stop-opacity:1" />
    </linearGradient>
  </defs>
  
  <!-- Background -->
  <rect width="440" height="150" rx="20" ry="20" fill="url(#apkGradient)" stroke="#0D4E14" stroke-width="1"/>
  
  <!-- Android Robot Icon (maximum enlarged) -->
  <g transform="translate(20, 15) scale(3.2)">
    <path d="M29.33,19.14 L32.4,13.83 C32.53,13.61 32.5,13.33 32.28,13.2 C32.06,13.07 31.78,13.1 31.65,13.32 L28.55,18.7 C25.75,17.0 22.25,17.0 19.45,18.7 L16.35,13.32 C16.22,13.1 15.94,13.07 15.72,13.2 C15.5,13.33 15.47,13.61 15.6,13.83 L18.67,19.14 C16.14,21.35 14.25,24.78 14.25,28.67 L33.75,28.67 C33.75,24.78 31.86,21.35 29.33,19.14 Z M20.83,24.17 C20.37,24.17 20,23.8 20,23.33 C20,22.87 20.37,22.5 20.83,22.5 C21.3,22.5 21.67,22.87 21.67,23.33 C21.67,23.8 21.3,24.17 20.83,24.17 Z M27.17,24.17 C26.7,24.17 26.33,23.8 26.33,23.33 C26.33,22.87 26.7,22.5 27.17,22.5 C27.63,22.5 28,22.87 28,23.33 C28,23.8 27.63,24.17 27.17,24.17 Z" fill="white"/>
  </g>
  
  <!-- Text (vertically centered with icon) -->
  <text x="175" y="95" font-family="-apple-system, BlinkMacSystemFont, 'Segoe UI', Roboto, sans-serif" font-size="38" font-weight="700" fill="white">Android APK</text>
</svg>